<svg xmlns="http://www.w3.org/2000/svg" viewBox="0 0 64 64" fill="none" stroke="#c9a84c" stroke-width="1.5" stroke-linecap="round" stroke-linejoin="round">
  <!-- Left arm -->
  <path d="M6 38 L16 28 L26 32"/>
  <!-- Right arm -->
  <path d="M58 38 L48 28 L36 32"/>
  <!-- Handshake grip -->
  <path d="M26 32 C28 30 32 28 36 32"/>
  <!-- Left hand fingers -->
  <path d="M16 28 L20 22 L24 26"/>
  <path d="M20 22 L22 18 L26 22"/>
  <!-- Right hand fingers -->
  <path d="M48 28 L44 22 L40 26"/>
  <path d="M44 22 L42 18 L38 22"/>
  <!-- Bottom: wrist lines -->
  <line x1="6" y1="38" x2="10" y2="44"/>
  <line x1="58" y1="38" x2="54" y2="44"/>
  <!-- Star / accent above -->
  <circle cx="32" cy="12" r="3"/>
  <line x1="32" y1="6" x2="32" y2="9"/>
  <line x1="32" y1="15" x2="32" y2="18"/>
  <line x1="26" y1="12" x2="29" y2="12"/>
  <line x1="35" y1="12" x2="38" y2="12"/>
</svg>
